<svg width="98" height="167" viewBox="0 0 98 167" fill="none" xmlns="http://www.w3.org/2000/svg">
<path d="M4.34626 141.408L62.0938 83.4221L4.34626 25.4363C2.96833 24.0527 1.8753 22.4101 1.12957 20.6023C0.383833 18.7946 1.45189e-08 16.857 0 14.9003C-1.45188e-08 12.9435 0.383833 11.006 1.12957 9.19818C1.8753 7.3904 2.96833 5.74781 4.34626 4.36419C5.72419 2.98057 7.36004 1.88303 9.16039 1.13422C10.9607 0.38541 12.8904 -1.45788e-08 14.839 0C16.7877 1.45788e-08 18.7173 0.38541 20.5177 1.13422C22.3181 1.88303 23.9539 2.98057 25.3318 4.36419L93.6466 72.9608C99.4511 78.7892 99.4511 88.2044 93.6466 94.0329L25.3318 162.629C23.9549 164.015 22.3194 165.114 20.5189 165.864C18.7184 166.614 16.7883 167 14.839 167C12.8898 167 10.9597 166.614 9.15919 165.864C7.35869 165.114 5.72318 164.015 4.34626 162.629C-1.30943 156.801 -1.45826 147.236 4.34626 141.408Z" fill="black"/>
</svg>
