<svg xmlns="http://www.w3.org/2000/svg" viewBox="0 0 36 48"><title>at-arrival</title><path d="M16.75,37.7l8.18,3.45,2.51-5.95-8.18-3.45Zm8.6-1.64-1.27,3-5.24-2.21,1.27-3Zm0,0"/><path d="M20.8,17.6c0,1.79,1.05,3.2,2.4,3.2s2.4-1.41,2.4-3.2a4.07,4.07,0,0,0-.33-1.6h.33a.8.8,0,0,0,0-1.6H5.6a.8.8,0,1,0,0,1.6H21.13a4,4,0,0,0-.32,1.6Zm3.2,0c0,1-.47,1.6-.8,1.6s-.8-.62-.8-1.6.48-1.6.8-1.6.8.63.8,1.6Zm0,0"/><path d="M32,23.2h-.8V13.49A3.89,3.89,0,0,0,27.31,9.6H20V4.8h.8a2.4,2.4,0,0,0,0-4.8H11.2a2.4,2.4,0,0,0,0,4.8H12V9.6H3.89A3.89,3.89,0,0,0,0,13.49V41.71A3.88,3.88,0,0,0,2.4,45.3v.55A2.15,2.15,0,0,0,4.55,48h4.5a2.15,2.15,0,0,0,2.15-2.15V45.6H20v.25A2.15,2.15,0,0,0,22.15,48h4.5a2.15,2.15,0,0,0,2.15-2.15V45.3a3.89,3.89,0,0,0,2.4-3.59V31.2H32a4,4,0,0,0,0-8ZM13.6,3.2V1.6h1.6V3.2Zm3.2-1.6h1.6V3.2H16.8Zm4.8.8a.8.8,0,0,1-.8.8H20V1.6h.8a.8.8,0,0,1,.8.8Zm-11.2,0a.8.8,0,0,1,.8-.8H12V3.2h-.8a.8.8,0,0,1-.8-.8Zm3.2,2.4h4.8V9.6H13.6Zm-4,41.05a.55.55,0,0,1-.55.55H4.55A.55.55,0,0,1,4,45.85V45.6H9.6Zm17.6,0a.55.55,0,0,1-.55.55h-4.5a.54.54,0,0,1-.55-.55V45.6h5.6Zm2.4-4.14A2.29,2.29,0,0,1,27.31,44H3.89A2.29,2.29,0,0,1,1.6,41.71V13.49A2.29,2.29,0,0,1,3.89,11.2H27.31a2.29,2.29,0,0,1,2.29,2.29ZM32,29.6h-.8V24.8H32a2.4,2.4,0,0,1,0,4.8Zm0,0"/></svg>