<svg xmlns="http://www.w3.org/2000/svg" viewBox="0 0 399 463"><title>at-breakfast</title><path d="M335.5,232a63.39,63.39,0,0,0-16.5,2.18V231.5A23.53,23.53,0,0,0,295.5,208H23.5A23.53,23.53,0,0,0,0,231.5v112c0,32.59,15.24,64.3,40,83.74V439.5A23.53,23.53,0,0,0,63.5,463h192A23.53,23.53,0,0,0,279,439.5V427.24c17.49-13.73,30.23-33.59,36.2-55.56A63.53,63.53,0,0,0,399,311.5v-16A63.57,63.57,0,0,0,335.5,232ZM319,295.5a16.5,16.5,0,0,1,33,0v16a16.5,16.5,0,0,1-33,0ZM255.5,448H63.5a8.51,8.51,0,0,1-8.5-8.5V431H264v8.5A8.51,8.51,0,0,1,255.5,448ZM304,343.5c0,28.38-13.35,55.92-35,72.5H50c-21.64-16.58-35-44.12-35-72.5v-112a8.51,8.51,0,0,1,8.5-8.5h272a8.51,8.51,0,0,1,8.5,8.5v112Zm80-32a48.5,48.5,0,0,1-65.85,45.29A106.08,106.08,0,0,0,319,343.5v-5.18a31.48,31.48,0,0,0,48-26.82v-16a31.48,31.48,0,0,0-48-26.82V249.89a48.51,48.51,0,0,1,65,45.61Z"/><path d="M154.43,148.65C146.22,156.17,136,165.54,136,183.5a7.5,7.5,0,0,0,15,0c0-11.36,6-16.85,13.57-23.79,8.21-7.52,18.43-16.89,18.43-34.85S172.78,97.52,164.57,90C157,83,151,77.55,151,66.18s6-16.86,13.57-23.81C172.78,34.84,183,25.47,183,7.5a7.5,7.5,0,0,0-15,0c0,11.37-6,16.86-13.57,23.81C146.22,38.84,136,48.21,136,66.18S146.22,93.52,154.43,101C162,108,168,113.49,168,124.86S162,141.71,154.43,148.65Z"/><path d="M202.43,148.65C194.22,156.17,184,165.54,184,183.5a7.5,7.5,0,0,0,15,0c0-11.36,6-16.85,13.57-23.79,8.21-7.52,18.43-16.89,18.43-34.85S220.78,97.52,212.57,90C205,83,199,77.55,199,66.18a7.5,7.5,0,1,0-15,0c0,18,10.22,27.34,18.43,34.87C210,108,216,113.49,216,124.86S210,141.71,202.43,148.65Z"/><path d="M106.43,148.65C98.22,156.17,88,165.54,88,183.5a7.5,7.5,0,1,0,15,0c0-11.36,6-16.85,13.57-23.79,8.21-7.52,18.43-16.89,18.43-34.85S124.78,97.52,116.57,90C109,83,103,77.55,103,66.18a7.5,7.5,0,0,0-15,0c0,18,10.22,27.34,18.43,34.87C114,108,120,113.49,120,124.86S114,141.71,106.43,148.65Z"/></svg>