<svg xmlns="http://www.w3.org/2000/svg" viewBox="0 0 58 57"><title>at-calendar</title><path d="M42.9,4A5,5,0,0,0,38,0a1,1,0,0,0,0,2,3,3,0,0,1,0,6,1,1,0,0,0,0,2,5,5,0,0,0,4.9-4H56v9H2V6H19a1,1,0,0,0,0-2H17.18A3,3,0,1,1,20,8a1,1,0,0,0,0,2,5,5,0,1,0-4.9-6H0V57H58V4ZM56,55H2V17H56Z"/><path d="M12.29,29.71a1,1,0,0,0,1.41,0L18,25.41V48H15a1,1,0,0,0,0,2h8a1,1,0,0,0,0-2H20V23a1,1,0,0,0-.08-.38,1,1,0,0,0-1.31-.54,1,1,0,0,0-.33.22l-6,6A1,1,0,0,0,12.29,29.71Z"/><path d="M38,48a5,5,0,0,1-5-5,1,1,0,0,0-2,0,7,7,0,0,0,14,0V29a7,7,0,1,0-2,4.89V43A5,5,0,0,1,38,48Zm0-14a5,5,0,1,1,5-5A5,5,0,0,1,38,34Z"/><path d="M26,2a3,3,0,0,1,0,6,1,1,0,0,0,0,2A5,5,0,0,0,26,0a1,1,0,0,0,0,2Z"/><path d="M32,2a3,3,0,0,1,0,6,1,1,0,0,0,0,2A5,5,0,0,0,32,0a1,1,0,0,0,0,2Z"/></svg>