<svg xmlns="http://www.w3.org/2000/svg" viewBox="0 0 289.37 409.6"><title>at-christmas</title><path d="M161.83,198a20.48,20.48,0,1,0-20.48,20.48A20.51,20.51,0,0,0,161.83,198Zm-27.3,0a6.83,6.83,0,1,1,6.82,6.83,6.83,6.83,0,0,1-6.82-6.83Zm0,0"/><path d="M107.22,307.2a20.48,20.48,0,1,0,20.48-20.48,20.51,20.51,0,0,0-20.48,20.48Zm27.31,0a6.83,6.83,0,1,1-6.83-6.82,6.84,6.84,0,0,1,6.83,6.82Zm0,0"/><path d="M175.48,244.87a6.79,6.79,0,0,0-7.09-6.56c-10.67.41-22.07.62-33.87.62-44.29,0-71.22-2.93-84.29-4.9l33.28-51.56A6.83,6.83,0,1,0,72,175.07L33.22,235.23a6.82,6.82,0,0,0,4.07,10.32c1.15.29,28.91,7,97.23,7,12,0,23.55-.21,34.4-.63a6.82,6.82,0,0,0,6.56-7.08Zm0,0"/><path d="M83.76,114.81a6.82,6.82,0,0,0,9.56-1.32l41.06-54.18L191.29,139c-4.71.88-11.18,1.89-19.4,2.71a6.83,6.83,0,0,0-5.09,10.46L218.88,234c-5.69.86-14,1.91-24.95,2.8a6.83,6.83,0,0,0-5.16,10.54l2.66,4.06a6.83,6.83,0,0,0,12.25-1.77c18.72-1.88,27.59-4,28-4.07a6.82,6.82,0,0,0,4.17-10.3L184.14,154c13.51-1.9,20.34-4,20.7-4.12a6.82,6.82,0,0,0,3.5-10.48l-67-93.8V39.14l7.5,4.33a6.83,6.83,0,0,0,6.83-11.83l-7.49-4.32,7.5-4.33a6.83,6.83,0,0,0-6.83-11.82l-7.5,4.33V6.83a6.83,6.83,0,0,0-13.66,0v8.65l-7.5-4.32A6.83,6.83,0,1,0,113.38,23l7.49,4.32-7.49,4.33a6.83,6.83,0,1,0,6.83,11.83l7.5-4.32v6.36L82.44,105.25a6.83,6.83,0,0,0,1.32,9.57Zm0,0"/><path d="M45.79,300.38A20.48,20.48,0,1,0,25.3,279.9a20.51,20.51,0,0,0,20.48,20.48Zm0-27.31A6.83,6.83,0,1,1,39,279.9a6.84,6.84,0,0,1,6.83-6.83Zm0,0"/><path d="M5.14,336.56a6.85,6.85,0,0,0,4,4.29C10.56,341.42,45.5,355,134.53,355s124-13.56,125.41-14.14A6.82,6.82,0,0,0,263,330.62l-25.18-36.36a20.46,20.46,0,1,0-14.56,6.11c.7,0,1.35-.14,2-.2l21.15,30.52c-14.79,3.83-49.85,10.65-111.93,10.65-62.42,0-97.52-6.9-112.16-10.7L32.5,315.22a6.82,6.82,0,0,0-11.41-7.5l-15.14,23a6.84,6.84,0,0,0-.81,5.8Zm218.14-49.84a6.83,6.83,0,1,1,6.82-6.82,6.83,6.83,0,0,1-6.82,6.82Zm0,0"/><path d="M86.74,163.84a20.37,20.37,0,0,0,16.07-7.93c5.64.42,17,1.1,31.72,1.1q7.35,0,13.86-.2a6.83,6.83,0,0,0,6.62-7,6.75,6.75,0,0,0-7-6.61q-6.32.19-13.44.2c-11.71,0-21.32-.46-27.4-.84a20.44,20.44,0,1,0-20.39,21.32Zm0-27.3a6.83,6.83,0,1,1-6.82,6.82,6.84,6.84,0,0,1,6.82-6.82Zm0,0"/><path d="M282.54,395.95H161.83v-27.3a6.83,6.83,0,1,0-13.65,0v27.3H120.88v-27.3a6.83,6.83,0,1,0-13.65,0v27.3H6.82a6.83,6.83,0,0,0,0,13.66H282.54a6.83,6.83,0,1,0,0-13.66Zm0,0"/></svg>