<svg xmlns="http://www.w3.org/2000/svg" viewBox="0 0 311.05 221.02"><title>at-deluxe</title><path d="M295,95.72V19.05A19.08,19.08,0,0,0,275.95,0H35.11A19.07,19.07,0,0,0,16.05,19.05V95.72A18.93,18.93,0,0,0,0,114.41v47.45a6,6,0,0,0,6,6h6.43v29.6a6,6,0,0,0,6,6H29.26V215a6,6,0,1,0,12,0V203.47H269.8V215a6,6,0,0,0,12,0V203.47h10.83a6,6,0,0,0,6-6v-29.6h6.43a6,6,0,0,0,6-6V114.41A18.93,18.93,0,0,0,295,95.72Zm-267-76.67A7.06,7.06,0,0,1,35.11,12H275.95A7.06,7.06,0,0,1,283,19.05V95.5H261.93c4.19-4.51,8.46-9.26,12.87-14.34a6,6,0,0,0,0-7.87A489.55,489.55,0,0,0,223,21.46a6,6,0,0,0-7.88,0,489.46,489.46,0,0,0-51.84,51.84,6,6,0,0,0,0,7.87c4.42,5.08,8.68,9.82,12.87,14.34h-41.2c4.19-4.51,8.45-9.26,12.87-14.34a6,6,0,0,0,0-7.87A489.93,489.93,0,0,0,96,21.46a6,6,0,0,0-7.88,0A489.93,489.93,0,0,0,36.25,73.29a6,6,0,0,0,0,7.87C40.66,86.25,44.93,91,49.12,95.5H28.05ZM192.68,95.5c-5.52-5.66-11.1-11.69-16.92-18.27A468.67,468.67,0,0,1,219,34,468.19,468.19,0,0,1,262.3,77.23c-5.82,6.59-11.4,12.61-16.92,18.27Zm-127,0c-5.52-5.67-11.1-11.69-16.92-18.27A468.3,468.3,0,0,1,92,34a468.69,468.69,0,0,1,43.27,43.27c-5.82,6.59-11.4,12.61-16.92,18.27Zm221,96H24.43v-23.6h262.2Zm12.43-35.6H12V114.41a6.92,6.92,0,0,1,6.91-6.91H292.14a6.92,6.92,0,0,1,6.91,6.91Zm0,0"/></svg>