<svg xmlns="http://www.w3.org/2000/svg" viewBox="0 0 324.83 402.6"><title>at-excursion</title><path d="M184.19,0H140.64a26.6,26.6,0,0,0-26.57,26.57v18l-2.28.85A125,125,0,0,0,30.1,162.75v42.17l-1.74,1A57.23,57.23,0,0,0,0,255.24v98A49.44,49.44,0,0,0,49.39,402.6H275.44a49.44,49.44,0,0,0,49.39-49.39v-98a57.23,57.23,0,0,0-28.37-49.31l-1.74-1V162.75A125,125,0,0,0,213,45.44l-2.28-.85v-18A26.6,26.6,0,0,0,184.19,0ZM127.81,26.57a12.85,12.85,0,0,1,12.83-12.83h43.55A12.85,12.85,0,0,1,197,26.57v14l-4.15-.79a125.23,125.23,0,0,0-23.26-2.19H155.22A125.22,125.22,0,0,0,132,39.82l-4.15.79Zm103,362.29H94V307.42a15.23,15.23,0,0,1,15.21-15.21H215.6a15.22,15.22,0,0,1,15.21,15.21ZM279.06,139.6,280.25,150a112.56,112.56,0,0,1,.73,12.73V322h13.74V220l6.18,7.34a43.35,43.35,0,0,1,10.19,27.86v98a35.69,35.69,0,0,1-35.65,35.64H244.55V307.42a29,29,0,0,0-28.95-28.95H109.23a29,29,0,0,0-28.95,28.95v81.44H49.39a35.69,35.69,0,0,1-35.65-35.64v-98a43.36,43.36,0,0,1,10.19-27.86L30.1,220V322H43.84V162.75A112.47,112.47,0,0,1,44.58,150l1.19-10.41,5.3,9c18.68,31.83,48.43,54,81.62,60.93l2.79.58v21a20.94,20.94,0,0,0,20.92,20.92h12a20.94,20.94,0,0,0,20.92-20.92v-21l2.79-.58c33.18-6.89,62.93-29.1,81.61-60.93ZM149.21,231.16V189a7.19,7.19,0,0,1,7.18-7.18h12a7.19,7.19,0,0,1,7.18,7.18v42.15a7.19,7.19,0,0,1-7.18,7.18h-12A7.19,7.19,0,0,1,149.21,231.16ZM228.77,71c17.66,12.76,31.82,30.89,40.95,52.4l.58,1.37-.58,1.37c-15,35.29-42.66,60.43-76,69l-4.37,1.12V189a20.94,20.94,0,0,0-20.92-20.92h-12A20.94,20.94,0,0,0,135.48,189v7.23l-4.37-1.12c-33.34-8.54-61-33.68-76-69l-.58-1.37.58-1.37C64.23,101.9,78.39,83.78,96.06,71s38.24-19.64,59.16-19.64h14.39C190.53,51.37,211,58.16,228.77,71Z" fill="#2d527c"/></svg>