<svg xmlns="http://www.w3.org/2000/svg" viewBox="0 0 250.61 301.59"><title>at-insurance</title><path d="M250.61,246.5V194.31a6,6,0,0,0-4.93-5.9c-5.26-1-10.64-1.76-16-2.41l-1.76-.21V60.93a5.84,5.84,0,0,0-.1-1.14l0-.25a6,6,0,0,0-1.07-2.29h-1.09V56.07L171.3,1.72A6,6,0,0,0,167.12,0H6A6,6,0,0,0,0,6V280.48a6,6,0,0,0,6,6H157.66l.57.53a55.06,55.06,0,0,0,92.38-40.5Zm-77.52-226,34.37,34.38H173.09ZM12,274.48V12H161.09V60.86a6,6,0,0,0,6,6h48.86V184.68l-2.13-.13c-6-.38-12.16-.57-18.29-.57a281.65,281.65,0,0,0-50.15,4.44,6,6,0,0,0-4.93,5.9V246.5a54.39,54.39,0,0,0,6,25.06l1.49,2.91Zm140.44-28V199.37l1.7-.26a276.23,276.23,0,0,1,82.78,0l1.7.26V246.5a43.09,43.09,0,0,1-86.17,0Z"/><path d="M54,196h54.34a6,6,0,0,0,0-12H54a6,6,0,0,0,0,12Z"/><path d="M108.87,125.89H54a6,6,0,1,0,0,12h54.86a6,6,0,1,0,0-12Z"/><path d="M143.61,137.89h30.33a6,6,0,0,0,0-12H143.61a6,6,0,1,0,0,12Z"/><path d="M173.94,93.47H143.61a6,6,0,0,0,0,12h30.33a6,6,0,0,0,0-12Z"/><path d="M84.34,217.69H54a6,6,0,0,0,0,12H84.34a6,6,0,0,0,0-12Z"/><path d="M195.53,270.63a6,6,0,0,0,6-6V248.78h15.85a6,6,0,0,0,0-12H201.53V220.93a6,6,0,0,0-12,0v15.85H173.68a6,6,0,0,0,0,12h15.85v15.85A6,6,0,0,0,195.53,270.63Z"/><path d="M108.87,93.47H54a6,6,0,0,0,0,12h54.86a6,6,0,0,0,0-12Z"/></svg>