<svg xmlns="http://www.w3.org/2000/svg" viewBox="0 0 442.42 512"><title>at-marriage</title><path d="M343,106.29l16.86-20.1a8.66,8.66,0,0,0,.74-10.79L318.25,4.23A8.67,8.67,0,0,0,310.79,0H131.62a8.67,8.67,0,0,0-7.45,4.23L81.47,75.91c-.09.14-.15.29-.22.44s-.13.22-.19.33l0,.13c-.1.23-.18.46-.26.69s-.11.29-.15.44-.12.52-.17.78-.06.25-.08.38a8.78,8.78,0,0,0-.09,1.17s0,.1,0,.14a8.76,8.76,0,0,0,.06,1c0,.14.05.27.08.41s.09.5.15.74.1.31.15.46.14.44.23.65.15.32.23.48.14.31.22.45l.09.14c.09.15.19.29.29.43s.26.38.41.56l.11.15,17.09,20.37a223.15,223.15,0,0,0-69.61,73.8A220.79,220.79,0,0,0,43,421.64a8.67,8.67,0,0,0,14-10.28A203.44,203.44,0,0,1,44.75,188.8a205.77,205.77,0,0,1,65.82-69.14l33.78,40.26a151.94,151.94,0,0,0-75,130.88c0,83.71,68.1,151.82,151.82,151.82S373,374.5,373,290.79a150.28,150.28,0,0,0-13.43-62.39,8.67,8.67,0,1,0-15.8,7.15,133.05,133.05,0,0,1,11.88,55.23c0,74.15-60.32,134.47-134.47,134.47S86.74,364.94,86.74,290.79A133.83,133.83,0,0,1,107.56,219a135.3,135.3,0,0,1,48.13-45.57l58.77,70.05a8.6,8.6,0,0,0,4.54,2.93,9.49,9.49,0,0,0,2.21.3,8.81,8.81,0,0,0,5.58-2,10.55,10.55,0,0,0,1.17-1.18l58.77-70.06A136.46,136.46,0,0,1,326.27,207a8.67,8.67,0,0,0,13.55-10.83,154,154,0,0,0-41.76-36.23l20.42-24.34,13.36-15.92a205.78,205.78,0,0,1,65.82,69.14,203.38,203.38,0,0,1,27.41,102c0,112.41-91.45,203.86-203.86,203.86a202.67,202.67,0,0,1-142.36-58.1A8.67,8.67,0,1,0,66.73,449a219.92,219.92,0,0,0,154.48,63c122,0,221.21-99.23,221.21-221.21a220.74,220.74,0,0,0-29.75-110.7A223.22,223.22,0,0,0,343,106.29ZM136.54,17.35h38.4l-6,13A8.67,8.67,0,1,0,184.7,37.6L194,17.35h54.31l25.09,54.33H169l2.46-5.33a8.67,8.67,0,1,0-15.75-7.27l-5.82,12.61H104.18ZM107.51,89h42.11L191.3,188.9Zm215.88,13.71h0l-16.79,20L251.11,188.9l5.07-12.15a8.67,8.67,0,0,0-16-6.68l-19,45.44L168.42,89H274L257.74,128a8.67,8.67,0,1,0,16,6.68l19-45.62H334.9ZM292.55,71.68,267.47,17.35h38.4l32.37,54.33Z"/></svg>