<svg xmlns="http://www.w3.org/2000/svg" viewBox="0 0 403.11 357.5"><defs><style>.cls-1{fill:#151515;}</style></defs><title>logo</title><g id="Слой_2" data-name="Слой 2"><g id="Слой_1-2" data-name="Слой 1"><g id="Layer_2" data-name="Layer 2"><path class="cls-1" d="M400.29,11.6A22.39,22.39,0,0,0,380.69,0H274.79a22.1,22.1,0,0,0-18.4,9.7l-26.7,38,26.1,41,30.8-43.9h53.6L256,179.1,150.19,10.6a22.53,22.53,0,0,0-19-10.5H22.39a22.44,22.44,0,0,0-19.2,34l195.7,323.4,27-41.8L62.09,44.9h56.7L237,233.1a22.44,22.44,0,0,0,38,0L399.69,34.4A22.44,22.44,0,0,0,400.29,11.6Z"/></g></g></g></svg>